<?xml version="1.0" standalone="no"?>
<!DOCTYPE svg PUBLIC "-//W3C//DTD SVG 20010904//EN"
 "http://www.w3.org/TR/2001/REC-SVG-20010904/DTD/svg10.dtd">
<svg version="1.0" xmlns="http://www.w3.org/2000/svg"
 width="200.000000pt" height="200.000000pt" viewBox="0 0 200.000000 200.000000"
 preserveAspectRatio="xMidYMid meet">
<metadata>
Created by potrace 1.16, written by Peter Selinger 2001-2019
</metadata>
<g transform="translate(0.000000,200.000000) scale(0.100000,-0.100000)"
fill="#000000" stroke="none">
<path d="M1006 1813 c-5 -15 -15 -17 -61 -15 -35 3 -55 0 -55 -7 0 -7 -21 -11
-50 -11 -27 0 -50 -4 -50 -10 0 -5 -18 -13 -40 -16 -41 -7 -47 -13 -30 -30 7
-7 -6 -24 -40 -53 -36 -31 -49 -48 -45 -61 4 -13 -6 -25 -42 -46 -95 -55 -218
-193 -277 -312 -15 -29 -38 -96 -53 -150 -23 -87 -25 -110 -20 -217 4 -92 11
-136 30 -190 44 -128 99 -219 186 -310 87 -91 174 -146 305 -193 97 -35 301
-43 409 -17 104 25 230 85 294 140 6 6 25 21 42 34 47 35 150 177 183 251 92
205 91 439 -2 639 -37 78 -103 171 -162 228 -65 63 -249 193 -274 193 -16 0
-26 12 -42 50 -19 45 -23 49 -40 39 -16 -10 -25 -8 -53 12 -19 13 -36 27 -39
30 -10 10 -54 39 -62 39 -3 0 -9 -8 -12 -17z m91 -78 c29 -19 59 -35 67 -35 8
0 19 -13 25 -30 9 -27 8 -30 -9 -30 -13 0 -22 -9 -26 -27 -3 -16 -7 -32 -8
-37 -2 -10 -166 162 -166 175 0 6 7 6 19 -1 26 -13 31 -13 31 5 0 22 9 19 67
-20z m-200 -31 c29 -20 53 -40 53 -44 0 -4 -19 -13 -42 -20 -33 -10 -39 -14
-25 -19 15 -6 9 -13 -32 -40 -28 -18 -56 -40 -63 -50 -7 -10 -30 -37 -51 -61
-33 -39 -43 -45 -92 -50 -30 -3 -55 -4 -55 -1 0 2 18 28 40 58 l41 53 -33 0
c-32 0 -32 1 27 36 75 45 74 44 47 51 -12 3 -22 8 -22 12 0 4 25 20 55 36 59
32 65 41 38 53 -14 5 -10 8 17 13 19 4 37 7 40 8 3 0 28 -15 57 -35z m218
-224 c42 -28 83 -50 92 -48 10 2 19 -8 26 -27 17 -53 67 -90 67 -49 0 8 5 12
10 9 6 -4 13 7 16 24 8 39 20 40 28 1 8 -41 -6 -72 -55 -125 -38 -41 -41 -48
-30 -71 11 -25 59 -51 115 -63 21 -5 32 -15 39 -36 5 -17 16 -38 25 -47 10
-12 11 -18 3 -18 -15 0 -91 50 -91 61 0 14 -72 43 -101 41 -26 -2 -28 0 -35
55 -3 32 -13 75 -22 96 -13 35 -16 37 -32 22 -9 -8 -19 -15 -22 -15 -3 0 -20
22 -38 49 -35 56 -97 115 -129 126 -11 3 -49 9 -83 13 l-63 7 73 32 c51 24 72
38 72 51 0 34 13 32 37 -3 13 -19 57 -58 98 -85z m446 -96 c142 -169 201 -414
150 -627 -52 -218 -190 -393 -386 -490 -71 -36 -213 -77 -264 -77 -23 0 -24 1
-6 20 10 11 29 20 43 20 13 0 52 7 86 16 225 58 429 262 492 494 13 46 18 100
18 185 -1 102 -5 132 -27 200 -29 90 -81 181 -143 253 -23 26 -45 58 -49 71
-7 23 -6 23 15 8 12 -8 44 -41 71 -73z m-773 -22 c13 -4 -60 -5 -163 -4 l-186
4 3 -33 c2 -27 8 -34 35 -41 22 -6 34 -17 42 -40 12 -34 14 -625 2 -668 -5
-18 -17 -28 -44 -34 -32 -8 -37 -13 -37 -39 l0 -29 158 4 c121 4 171 10 219
26 172 55 270 179 292 366 6 53 9 60 10 29 4 -138 -79 -291 -194 -359 -97 -57
-147 -67 -330 -68 l-170 -1 0 35 c0 30 4 35 31 40 17 4 36 10 42 14 9 5 12
100 12 351 0 370 3 351 -55 370 -20 7 -31 18 -33 33 -7 48 8 52 182 51 88 -1
171 -4 184 -7z m214 -54 c46 -36 114 -137 128 -189 6 -22 21 -50 32 -61 l21
-21 -29 -24 c-35 -28 -40 -28 -61 -4 -9 11 -21 17 -28 15 -21 -8 -65 43 -65
76 0 28 -3 31 -21 25 -21 -7 -22 -5 -16 34 4 36 3 40 -9 30 -8 -6 -16 -10 -18
-8 -2 2 -7 44 -11 92 l-7 89 24 -13 c12 -6 40 -25 60 -41z m-131 3 c16 -19 19
-33 13 -64 -4 -27 -3 -37 4 -33 7 4 9 -6 5 -30 -5 -29 -3 -35 7 -29 10 6 12 1
8 -19 -4 -21 -2 -26 9 -22 7 3 16 -1 19 -9 4 -8 12 -15 19 -15 12 0 35 -76 35
-115 0 -19 11 -19 36 0 28 21 32 19 40 -21 4 -24 11 -34 20 -30 30 12 8 -125
-34 -212 -51 -104 -177 -190 -312 -211 -36 -6 -116 -11 -177 -11 -102 0 -113
2 -113 18 0 12 11 21 32 27 19 6 38 21 45 35 16 31 18 644 3 685 -6 15 -24 32
-45 41 -21 8 -35 21 -35 32 0 16 15 17 201 12 198 -5 201 -5 220 -29z m-500
-93 c-46 -98 -64 -180 -65 -298 0 -122 17 -197 71 -313 25 -53 33 -81 26 -88
-13 -13 -74 102 -102 196 -56 180 -29 403 67 565 23 39 27 42 30 23 2 -12 -10
-51 -27 -85z m1147 -281 c41 -1 74 2 76 8 3 6 5 -2 5 -17 1 -16 -1 -28 -3 -28
-2 0 -13 -3 -23 -6 -16 -6 -16 -5 2 11 19 17 19 17 -5 2 -14 -8 -39 -12 -56
-10 -21 3 -48 -4 -83 -21 -48 -25 -60 -46 -25 -46 25 0 15 -15 -18 -28 -32
-12 -32 -13 -14 -27 20 -15 20 -15 0 -30 -10 -8 -23 -15 -29 -15 -5 0 -1 -8
10 -16 20 -15 20 -15 -2 -33 -19 -16 -20 -20 -6 -33 13 -14 3 -32 -107 -172
-67 -86 -124 -156 -127 -156 -3 0 0 7 7 15 20 24 5 18 -16 -7 -10 -12 -13 -18
-6 -14 22 13 12 -8 -22 -48 -23 -27 -43 -39 -63 -41 -28 -2 -33 3 -62 62 -17
36 -27 61 -21 58 7 -4 2 11 -9 34 -12 23 -24 41 -26 41 -3 0 1 -13 10 -30 28
-54 7 -32 -24 26 -16 30 -23 50 -15 43 12 -10 13 -9 9 3 -4 11 8 24 37 41 40
24 44 25 56 9 7 -9 17 -18 22 -18 6 -1 15 -2 21 -3 5 0 7 -6 4 -11 -4 -6 -11
-8 -16 -5 -5 4 -9 4 -9 1 0 -3 4 -7 9 -10 5 -4 24 13 41 36 22 30 24 34 6 15
-14 -15 -26 -24 -26 -20 0 4 16 26 36 48 20 22 30 31 23 20 -13 -18 -13 -19 3
-6 10 7 15 17 13 22 -5 6 161 240 183 259 15 12 -38 -63 -105 -152 -41 -54
-71 -98 -68 -98 3 0 45 54 94 120 66 88 89 126 87 145 -3 32 -12 40 -44 40
-21 0 -28 5 -30 25 l-3 25 118 -3 c65 -1 151 -3 191 -5z m-970 -548 c70 -62
214 -134 302 -150 78 -14 110 -25 110 -39 0 -27 -167 12 -275 65 -85 41 -225
144 -225 165 0 23 36 7 88 -41z"/>
<path d="M696 1283 c-3 -4 -6 -73 -6 -154 l0 -148 -62 -3 -63 -3 -3 -41 c-3
-39 -2 -41 38 -57 34 -13 44 -24 65 -72 20 -45 25 -72 25 -140 0 -46 4 -86 8
-89 19 -12 87 18 127 55 23 22 53 63 66 92 21 46 24 66 24 187 0 162 -18 220
-93 300 -45 47 -112 87 -126 73z m170 -345 c4 -13 2 -24 -5 -26 -6 -2 -9 -7
-7 -11 3 -4 -4 -12 -15 -19 -10 -7 -19 -8 -19 -3 0 5 5 12 10 14 6 3 5 4 -2 3
-15 -3 -20 -65 -7 -86 6 -10 8 -6 4 15 -3 17 -2 23 1 15 26 -61 32 -80 24 -75
-6 4 -7 -6 -4 -23 5 -23 -1 -36 -26 -66 -18 -20 -37 -36 -44 -36 -6 0 -35 47
-64 105 -28 58 -50 105 -47 105 3 0 27 -45 55 -100 28 -55 52 -100 55 -100 3
0 -19 49 -49 109 -50 100 -91 151 -120 151 -6 0 4 -9 22 -20 48 -30 39 -32
-13 -3 -34 19 -45 31 -45 49 l0 24 144 0 c140 0 145 -1 152 -22z"/>
</g>
</svg>
